<?xml version="1.0" standalone="no"?>
<!DOCTYPE svg PUBLIC "-//W3C//DTD SVG 20010904//EN"
 "http://www.w3.org/TR/2001/REC-SVG-20010904/DTD/svg10.dtd">
<svg version="1.0" xmlns="http://www.w3.org/2000/svg"
 width="1123.000000pt" height="1123.000000pt" viewBox="0 0 1123.000000 1123.000000"
 preserveAspectRatio="xMidYMid meet">
<metadata>
Created by potrace 1.11, written by Peter Selinger 2001-2013
</metadata>
<g transform="translate(0.000000,1123.000000) scale(0.100000,-0.100000)"
fill="#000000" stroke="none">
<path d="M1200 5605 l0 -4525 4415 0 4415 0 0 4525 0 4525 -4415 0 -4415 0 0
-4525z m1750 3014 c445 -11 1292 -8 2061 7 l316 7 6 -48 c9 -60 7 -232 -2
-265 -6 -23 -15 -26 -126 -42 -150 -23 -328 -69 -392 -101 -89 -46 -142 -123
-169 -246 -27 -116 -36 -752 -37 -2501 -2 -2029 1 -2117 80 -2262 68 -125 173
-170 564 -241 103 -19 192 -38 198 -41 26 -16 4 -235 -31 -311 l-12 -28 -136
7 c-626 29 -1768 31 -2548 5 -272 -9 -356 -9 -365 0 -16 16 -17 295 -1 311 5
5 133 34 283 64 227 45 285 59 339 87 102 52 156 139 182 291 24 136 31 702
31 2348 0 2078 -3 2176 -52 2323 -39 117 -96 173 -210 208 -67 21 -302 70
-434 90 -44 6 -85 16 -92 21 -25 19 -37 118 -25 210 14 115 23 131 70 124 20
-3 246 -11 502 -17z m3595 1 c393 -13 941 -13 1528 2 386 9 490 9 500 -1 8 -8
12 -53 12 -144 0 -174 -3 -178 -116 -196 -629 -98 -814 -207 -1264 -741 -337
-400 -766 -905 -934 -1099 -103 -118 -214 -247 -248 -287 -35 -40 -63 -82 -63
-93 0 -36 188 -329 418 -651 467 -654 1170 -1507 1642 -1994 191 -197 351
-326 492 -397 80 -40 252 -83 445 -110 l162 -23 7 -45 c7 -48 -17 -219 -37
-263 -15 -33 -24 -35 -349 -49 -561 -25 -1416 9 -1695 66 -236 49 -472 260
-934 835 -324 403 -816 1086 -1220 1695 -51 77 -125 172 -163 211 l-70 71 11
73 c7 40 14 77 17 81 3 5 37 28 77 51 423 245 842 652 1393 1353 448 569 614
849 614 1033 0 100 -45 145 -200 197 -101 34 -237 61 -403 82 -109 13 -140 20
-148 34 -27 51 -19 278 12 315 8 9 38 11 117 8 59 -2 238 -9 397 -14z"/>
</g>
</svg>
